<svg class="integration-messagebird__toggle-icon" fill="none" viewBox="0 0 16 16" xmlns="http://www.w3.org/2000/svg">
      <path d="M10.9526 13.1694V10.6108H14.1561V1.70068H1.41992V10.6108H7.73355L10.9526 13.1694Z" fill="currentColor"></path>
      <path d="M10.9526 10.6108V9.53457H9.87632V10.6108H10.9526ZM10.9526 13.1694L10.2829 14.012L12.0288 15.3997V13.1694H10.9526ZM7.73355 10.6108L8.40322 9.7683L8.10917 9.53457H7.73355V10.6108ZM1.41992 10.6108H0.343676L1.41992 11.6871V10.6108ZM1.41992 1.70068V0.624437L0.343676 1.70068H1.41992ZM14.1561 1.70068H15.2324L14.1561 0.624437V1.70068ZM14.1561 10.6108V11.6871L15.2324 10.6108H14.1561ZM9.87632 10.6108V13.1694H12.0288V10.6108H9.87632ZM11.6222 12.3269L8.40322 9.7683L7.06387 11.4533L10.2829 14.012L11.6222 12.3269ZM7.73355 9.53457H1.41992V11.6871H7.73355V9.53457ZM2.49617 10.6108V1.70068H0.343676V10.6108H2.49617ZM1.41992 2.77693H14.1561V0.624437H1.41992V2.77693ZM13.0799 1.70068V10.6108H15.2324V1.70068H13.0799ZM14.1561 9.53457H10.9526V11.6871H14.1561V9.53457Z" fill="currentColor"></path>
    </svg>