<svg xmlns="http://www.w3.org/2000/svg" width="19" height="20" viewBox="0 0 19 20" fill="none">
        <path fill-rule="evenodd" clip-rule="evenodd" d="M6.20973 14.7172L6.05238 14.5985L1.65808 19.0556L0.339681 17.7373L4.77597 13.301L4.6598 13.145C3.6653 11.8097 3.12134 10.1753 3.12134 8.54096C3.12134 4.3077 6.57914 0.849976 10.8123 0.849976C15.0454 0.849976 18.5033 4.28682 18.5033 8.54096C18.5033 12.7952 15.0455 16.2529 10.8123 16.2529C9.1593 16.2529 7.5256 15.71 6.20973 14.7172ZM10.7704 2.71226C7.56248 2.71226 4.94163 5.33311 4.94163 8.54104C4.94163 11.749 7.56248 14.3698 10.7704 14.3698C13.9783 14.3698 16.5992 11.749 16.5992 8.54104C16.5992 5.33311 13.9783 2.71226 10.7704 2.71226Z"></path>
    </svg>